<?xml version="1.0" encoding="UTF-8" standalone="no"?>
<!DOCTYPE svg PUBLIC "-//W3C//DTD SVG 1.1//EN" "http://www.w3.org/Graphics/SVG/1.1/DTD/svg11.dtd">
<svg width="100%" height="100%" viewBox="0 0 64 64" version="1.1" xmlns="http://www.w3.org/2000/svg" xmlns:xlink="http://www.w3.org/1999/xlink" xml:space="preserve" xmlns:serif="http://www.serif.com/" style="fill-rule:evenodd;clip-rule:evenodd;stroke-linejoin:round;stroke-miterlimit:2;">
    <path d="M42.396,5.2C42.743,5.098 43.133,5.023 43.554,5.004C44.443,4.963 45.481,5.108 46.063,5.339C46.131,5.366 46.197,5.394 46.26,5.424C46.463,5.441 46.802,5.483 47.088,5.571C47.286,5.632 47.471,5.712 47.64,5.803C48.161,5.94 48.776,6.131 49.124,6.34L49.166,6.352C49.081,6.282 48.998,6.219 48.998,6.219L49.191,6.36L49.354,6.408L49.389,6.42L49.262,6.314L50.111,6.623C50.417,6.719 51.187,6.971 51.59,7.173C51.355,7.055 50.667,6.97 50.312,6.933L50.32,6.943L50.325,6.949C50.913,7.048 52.445,7.336 52.806,7.697C53.269,8.161 54.348,8.67 54.92,9.242C55.317,9.64 55.698,10.558 56.095,11.353C56.182,11.526 56.219,12.089 56.235,12.618C56.328,12.968 56.424,13.435 56.436,13.819C56.449,14.235 56.386,14.608 56.281,14.933C56.273,15.129 56.259,15.351 56.236,15.57C56.262,15.752 56.31,16.126 56.31,16.346C56.31,16.616 56.228,17.238 56.228,17.647C56.228,21.637 56.635,25.367 56.635,29.276C56.635,30.559 56.553,31.738 56.553,33.017C56.553,33.17 56.521,33.583 56.502,33.814C56.771,34.842 56.716,36.131 56.716,37.164C56.716,39.316 56.635,41.395 56.635,43.426C56.635,44.232 56.801,45.185 56.684,45.956C56.643,46.362 56.555,47.109 56.459,47.35C56.283,47.793 56.039,48.109 55.815,48.333C55.51,48.637 54.725,49.346 53.337,49.118C53.037,49.068 51.971,48.691 51.484,48.444L51.39,48.393C50.788,48.252 49.847,47.992 49.356,47.666L49.355,47.666C49.6,47.838 49.941,48.017 49.941,48.017C49.941,48.017 49.231,47.769 48.603,47.462C48.128,47.318 47.613,47.128 47.359,46.921C47.534,47.066 47.865,47.259 47.865,47.259C47.865,47.259 47.306,47.069 46.703,46.811C46.376,46.803 45.955,46.782 45.775,46.733C45.539,46.67 45.327,46.584 45.137,46.481C44.733,46.411 44.09,46.279 43.719,46.093C43.884,46.175 44.47,46.329 44.47,46.329C44.47,46.329 43.984,46.189 43.454,46.003C42.968,45.978 42.481,45.9 42.118,45.724C42.432,45.909 42.826,46.106 42.826,46.106C42.826,46.106 41.917,46.063 41.718,46.063C41.393,46.063 40.855,46.135 40.74,46.152C40.379,46.432 39.656,46.752 39.247,46.921C39.048,47.052 38.806,47.177 38.516,47.273C38.328,47.336 37.867,47.423 37.592,47.472C36.808,47.827 36.006,48.067 35.205,48.3L35.188,48.31C35.034,48.396 34.804,48.473 34.566,48.536C34.209,48.864 33.769,49.085 33.248,49.198C33.166,49.215 33.05,49.217 32.914,49.208C32.773,49.228 32.638,49.235 32.511,49.235C32.417,49.234 31.17,48.955 30.84,48.754L30.817,48.739C30.64,48.749 30.464,48.753 30.294,48.751C29.776,48.743 29.305,48.671 28.941,48.585C28.541,48.554 28.104,48.491 27.861,48.37C27.449,48.164 26.829,47.532 26.447,47.116C26.054,46.952 25.608,46.742 25.356,46.544L25.381,46.565C25.381,46.565 24.845,46.254 24.363,45.893C23.931,45.728 23.244,45.448 22.832,45.189L22.828,45.189C23.101,45.367 23.448,45.536 23.448,45.536C23.448,45.536 23.007,45.403 22.497,45.189C21.988,45.189 21.198,45.176 20.99,45.106C21.036,45.121 21.162,45.154 21.162,45.154L20.735,45.122C20.735,45.122 20.999,45.055 21.236,44.986C20.656,45.126 19.699,45.195 19.173,45.225C18.923,45.285 18.669,45.327 18.412,45.356C18.269,45.372 18.123,45.364 17.979,45.365C17.779,45.61 17.543,45.863 17.268,46.137C16.768,46.638 16.116,46.964 15.312,47.02C14.882,47.05 14.294,46.92 13.729,46.706L13.727,46.711C13.535,47.094 13.065,47.59 12.801,47.853C12.024,48.991 10.505,49.41 9.238,48.776C7.856,48.085 7.295,46.402 7.986,45.02C8.182,44.627 8.597,44.175 8.873,43.898L9.013,43.626L9.032,43.59C8.893,43.42 8.759,43.216 8.637,42.97C8.476,42.65 8.41,41.978 8.383,41.487C8.233,40.837 8.178,40.259 8.178,39.522C8.178,37.661 8.585,36.05 8.585,34.48C8.585,33.75 8.666,33.217 8.666,32.447C8.666,32.403 8.676,32.244 8.685,32.108C8.627,31.537 8.666,30.398 8.666,29.926C8.666,28.668 8.716,27.173 8.737,25.856C8.659,25.675 8.589,25.472 8.529,25.24C8.511,25.162 8.283,24.161 8.313,23.733C8.353,23.155 8.539,22.682 8.786,22.307C8.755,21.784 8.748,21.218 8.748,20.9C8.748,19.155 8.829,17.71 8.829,16.02L8.831,15.772C8.78,15.643 8.737,15.504 8.702,15.355C8.656,15.158 8.635,14.635 8.626,14.33C8.37,13.874 8.232,13.32 8.264,12.672C8.28,12.323 8.393,11.903 8.507,11.568C8.469,10.574 8.966,9.622 9.827,9.087L10.214,8.858L10.152,8.911C10.601,8.537 11.561,8.088 11.816,7.973L11.845,7.941C12.059,7.727 12.408,7.578 12.795,7.477C13.2,7.173 13.655,6.916 14.118,6.685C14.345,6.571 14.815,6.468 15.186,6.4C15.549,6.187 15.979,6.009 16.476,5.89C17.355,5.679 18.622,5.657 19.761,5.657C20.209,5.657 21.311,5.577 21.895,5.685C22.115,5.726 22.316,5.783 22.5,5.853C22.89,5.889 23.279,5.947 23.453,6.034C24.345,6.48 25.047,6.809 25.73,7.399C26.072,7.567 26.454,7.775 26.62,7.941C26.678,7.999 26.743,8.094 26.812,8.212C27.114,8.301 27.362,8.395 27.519,8.474C27.407,8.418 27.143,8.362 26.87,8.317L26.884,8.341L26.899,8.372C27.59,8.524 28.499,8.763 28.735,8.998C28.557,8.821 28.034,8.53 28.034,8.53C28.034,8.53 29.601,9.133 30.036,9.568C30.275,9.807 30.533,10.149 30.736,10.604C30.898,10.967 31.16,11.94 31.192,12.06L31.247,12.198L31.292,12.324C31.539,12.614 31.769,12.908 31.821,13.044C31.942,13.365 31.996,13.675 32.002,13.97L32.013,13.975L32.066,14.007C32.275,13.666 32.504,13.327 32.72,13.003C32.595,13.191 32.308,14.054 32.308,14.054C32.308,14.054 33.049,12.259 33.248,12.078L33.332,12.007C34.558,9.804 36.027,8.562 37.461,7.128C37.622,6.967 37.989,6.827 38.404,6.713C38.95,6.353 39.646,5.997 39.851,5.895C40.16,5.634 40.562,5.405 41.072,5.277C41.349,5.207 42.001,5.197 42.396,5.2ZM34.319,48.598L34.316,48.6L34.326,48.596L34.319,48.598ZM25.351,46.541L25.263,46.463C25.286,46.486 25.325,46.518 25.351,46.541ZM56.697,45.834C56.705,45.758 56.711,45.688 56.711,45.688L56.697,45.834ZM42.219,45.442C42.331,45.541 42.478,45.621 42.648,45.685C42.465,45.602 42.313,45.519 42.219,45.442ZM22.681,45.086L22.715,45.111L22.717,45.112L22.676,45.082L22.681,45.086ZM22.671,45.078L22.579,44.999C22.605,45.024 22.636,45.051 22.671,45.078ZM54.457,43.774L54.343,43.688L54.327,43.692L54.404,43.738L54.457,43.774ZM8.529,25.24L8.53,25.245C8.53,25.245 8.512,25.18 8.506,25.157L8.529,25.24ZM56.057,16.438L56.014,16.541C56.03,16.509 56.044,16.475 56.057,16.438ZM14.102,13.387L14.122,13.532C14.122,13.532 14.116,13.476 14.102,13.387ZM51.594,12.188L51.594,12.189L51.611,12.17L51.594,12.188ZM8.542,11.929L8.542,11.93C8.543,11.932 8.543,11.933 8.543,11.933L8.542,11.929ZM17.728,11.757L17.737,11.757L17.728,11.757ZM46.843,11.438L46.864,11.424L46.726,11.338L46.843,11.438ZM46.114,10.993L46.149,11.011L46.154,11.011L46.15,11.011L46.383,11.131C46.468,11.18 46.553,11.229 46.637,11.278L46.864,11.424L46.906,11.393L46.92,11.379C46.766,11.291 46.62,11.189 46.486,11.074L46.314,11.035L46.073,10.974L46.114,10.993ZM12.561,10.598C12.506,10.566 12.45,10.535 12.393,10.507L12.561,10.598ZM44.451,10.345C44.481,10.369 44.511,10.392 44.541,10.415L44.619,10.468L44.664,10.479C44.572,10.43 44.492,10.378 44.428,10.324L44.451,10.345ZM11.787,8.004C11.684,8.072 11.52,8.185 11.438,8.267C11.491,8.214 11.594,8.151 11.726,8.084L11.78,8.012L11.787,8.004Z" style="fill:rgb(204,161,71);"/>
    <g id="Bookmark" transform="matrix(1,3.69779e-32,1.2326e-32,1,5.13463,-460.456)">
        <path d="M14.7,465C10.4,465 6,467.2 2.6,470.8C2.3,471.2 2.1,471.7 2.1,472.1L2.1,510.1C2.1,510.9 2.898,511.165 3.6,511C12.466,508.913 12.499,508.997 15.599,508.997C19.599,508.997 19.59,509.013 25.9,512.4C26.294,512.611 26.4,513 26.8,513L27.5,513C27.9,513 27.98,512.554 28.4,512.4C35.198,509.908 35.17,509.973 39.27,509.973C42.37,509.973 42.484,509.97 50.7,511C51.5,511.1 52.2,510.9 52.2,510.1L52.2,472.1C52.2,471.6 52,471.1 51.7,470.8C48.3,467.1 43.9,465 39.6,465C34.9,465 30.3,467.6 27.2,472C23.9,467.7 19.4,465 14.7,465ZM14.7,466.5C19.4,466.5 23.9,469.5 26.1,474L26.1,509C23.3,505 19.7,503.8 16.9,503.8C13.2,503.8 9,505.9 4.1,509L4.1,472.5C4.1,472 4.3,471.5 4.7,471.1C7.4,468.4 11,466.5 14.7,466.5ZM50.1,509C45.2,505.9 41,503.8 37.3,503.8C32.9,503.8 30,506.3 28.1,509L28.1,474C29.9,469.9 34.8,466.5 39.5,466.5C43.2,466.5 46.7,468.4 49.5,471.1C49.9,471.5 50.1,472 50.1,472.5L50.1,509Z" style="fill-rule:nonzero;"/>
    </g>
</svg>
